<svg xmlns="http://www.w3.org/2000/svg">


	<symbol id="product_icon">
		<g clip-path="url(#clip501_133)">
			<path
				d="M15 22.75L9 22.75C3.57 22.75 1.25 20.43 1.25 15L1.25 9C1.25 3.57 3.57 1.25 9 1.25L15 1.25C20.43 1.25 22.75 3.57 22.75 9L22.75 15C22.75 20.43 20.43 22.75 15 22.75ZM9 2.75C4.39 2.75 2.75 4.39 2.75 9L2.75 15C2.75 19.61 4.39 21.25 9 21.25L15 21.25C19.61 21.25 21.25 19.61 21.25 15L21.25 9C21.25 4.39 19.61 2.75 15 2.75L9 2.75Z"
				fill-opacity="1.000000" fill-rule="nonzero" />
			<path
				d="M12 13.07C11.87 13.07 11.74 13.04 11.62 12.97L6.32 9.91C5.96 9.7 5.84 9.24 6.05 8.89C6.26 8.53 6.72 8.41 7.07 8.62L11.99 11.47L16.88 8.64C17.24 8.43 17.7 8.56 17.9 8.91C18.1 9.26 17.98 9.73 17.63 9.93L12.37 12.97C12.26 13.03 12.13 13.07 12 13.07Z"
				fill-opacity="1.000000" fill-rule="nonzero" />
			<path
				d="M12 18.52C11.59 18.52 11.25 18.18 11.25 17.77L11.25 12.33C11.25 11.92 11.59 11.58 12 11.58C12.41 11.58 12.75 11.92 12.75 12.33L12.75 17.77C12.75 18.18 12.41 18.52 12 18.52Z"
				fill-opacity="1.000000" fill-rule="nonzero" />
			<path
				d="M12 18.74C11.42 18.74 10.85 18.61 10.39 18.36L7.19 16.58C6.23 16.05 5.49 14.78 5.49 13.68L5.49 10.29C5.49 9.2 6.24 7.93 7.19 7.39L10.39 5.61C11.31 5.1 12.69 5.1 13.61 5.61L16.81 7.39C17.77 7.92 18.51 9.19 18.51 10.29L18.51 13.68C18.51 14.77 17.76 16.04 16.81 16.58L13.61 18.36C13.15 18.62 12.58 18.74 12 18.74ZM12 6.74C11.67 6.74 11.35 6.8 11.12 6.93L7.92 8.71C7.43 8.98 6.99 9.74 6.99 10.29L6.99 13.68C6.99 14.24 7.43 14.99 7.92 15.26L11.12 17.04C11.58 17.3 12.42 17.3 12.88 17.04L16.08 15.26C16.57 14.99 17.01 14.23 17.01 13.68L17.01 10.29C17.01 9.73 16.57 8.98 16.08 8.71L12.88 6.93C12.65 6.8 12.33 6.74 12 6.74Z"
				fill-opacity="1.000000" fill-rule="nonzero" />
		</g>
	</symbol>
	<symbol id="dashboard_icon">
		<g >
			<path d="M15 22C20 22 22 20 22 15L22 9C22 4 20 2 15 2L9 2C4 2 2 4 2 9L2 15C2 20 4 22 9 22L15 22Z"
				stroke-opacity="1.000000" stroke-width="1.500000" stroke-linejoin="round" />
			<path
				d="M12.09 14.39L9.73 16.74C9.57 16.92 9.23 17.02 8.98 16.99L7.89 16.84C7.53 16.8 7.2 16.45 7.15 16.1L7 15C6.97 14.77 7.08 14.43 7.25 14.26L9.59 11.91C9.19 10.61 9.5 9.13 10.53 8.1C12.01 6.63 14.41 6.63 15.89 8.1C17.36 9.57 17.36 11.97 15.89 13.46C14.86 14.48 13.39 14.8 12.09 14.39Z"
				stroke-opacity="1.000000" stroke-width="1.500000" stroke-linejoin="round" />
			<path d="M10.45 16.8L9.59 15.42" stroke-opacity="1.000000" stroke-width="1.500000" stroke-linejoin="round"
				stroke-linecap="round" />
			<path d="M13.39 10.7L13.4 10.7" stroke-opacity="1.000000" stroke-width="2.000000" stroke-linejoin="round"
				stroke-linecap="round" />
		</g>
	</symbol>
	<symbol id="arrow">
		<path d="M1 9L5 5L1 1" stroke-opacity="1.000000" stroke-width="2.000000" stroke-linejoin="round"
			stroke-linecap="round" />
	</symbol>
	<symbol id="customers_icon">
		<g clip-path="url(#clip501_142)">
			<path
				d="M15 22.74L9 22.74C7.68 22.74 6.58 22.61 5.65 22.33C5.31 22.23 5.09 21.9 5.11 21.55C5.36 18.56 8.39 16.21 12 16.21C15.61 16.21 18.63 18.55 18.89 21.55C18.92 21.91 18.7 22.23 18.35 22.33C17.42 22.61 16.32 22.74 15 22.74ZM6.72 21.05C7.38 21.18 8.13 21.24 9 21.24L15 21.24C15.87 21.24 16.62 21.18 17.28 21.05C16.75 19.13 14.56 17.71 12 17.71C9.44 17.71 7.25 19.13 6.72 21.05Z"
				fill-opacity="1.000000" fill-rule="nonzero" />
			<path
				d="M9 2C4 2 2 4 2 9L2 15C2 18.78 3.14 20.85 5.85 21.62C6.08 19.02 8.75 16.96 12 16.96C15.25 16.96 17.92 19.02 18.14 21.62C20.86 20.85 22 18.78 22 15L22 9C22 4 20 2 15 2L9 2ZM8.41 10.58C8.41 8.6 10.02 7 12 7C13.98 7 15.58 8.6 15.58 10.58C15.58 12.56 13.98 14.17 12 14.17C10.02 14.17 8.41 12.56 8.41 10.58Z"
				stroke-opacity="1.000000" stroke-width="1.500000" stroke-linejoin="round" />
			<path
				d="M11.99 14.92C9.6 14.92 7.66 12.97 7.66 10.58C7.66 8.19 9.6 6.25 11.99 6.25C14.38 6.25 16.32 8.19 16.32 10.58C16.32 12.97 14.38 14.92 11.99 14.92ZM11.99 7.75C10.43 7.75 9.16 9.02 9.16 10.58C9.16 12.15 10.43 13.42 11.99 13.42C13.55 13.42 14.82 12.15 14.82 10.58C14.82 9.02 13.55 7.75 11.99 7.75Z"
				fill-opacity="1.000000" fill-rule="nonzero" />
		</g>
	</symbol >
	<symbol id="income_icon">
		<g clip-path="url(#clip501_150)">
			<path
				d="M10.75 18.89C10.75 20.61 9.15 22 7.18 22C5.21 22 3.6 20.61 3.6 18.89L3.6 16.86C3.6 18.58 5.2 19.8 7.18 19.8C9.15 19.8 10.75 18.57 10.75 16.86L10.75 18.89Z"
				stroke-opacity="1.000000" stroke-width="1.500000" stroke-linejoin="round" />
			<path
				d="M10.37 15.47C9.78 16.44 8.57 17.04 7.17 17.04C5.77 17.04 4.56 16.43 3.97 15.47C3.73 15.07 3.59 14.61 3.59 14.11C3.59 13.25 3.99 12.48 4.63 11.92C5.28 11.35 6.17 11.01 7.16 11.01C8.15 11.01 9.04 11.36 9.69 11.92C10.35 12.47 10.75 13.25 10.75 14.11C10.75 14.61 10.61 15.07 10.37 15.47Z"
				stroke-opacity="1.000000" stroke-width="1.500000" stroke-linejoin="round" />
			<path
				d="M10.75 16.86C10.75 18.58 9.15 19.79 7.18 19.79C5.21 19.79 3.6 18.57 3.6 16.86L3.6 14.11C3.6 12.39 5.2 11 7.18 11C8.17 11 9.06 11.35 9.71 11.91C10.35 12.47 10.75 13.25 10.75 14.11L10.75 16.86Z"
				stroke-opacity="1.000000" stroke-width="1.500000" stroke-linejoin="round" />
			<path
				d="M22 13.03C22 13.58 21.56 14.02 21 14.04L19.03 14.04C17.95 14.04 16.96 13.25 16.87 12.17C16.81 11.54 17.05 10.95 17.47 10.54C17.84 10.16 18.36 9.94 18.92 9.94L21 9.94C21.56 9.96 22 10.41 22 10.96L22 13.03Z"
				stroke-opacity="1.000000" stroke-width="1.500000" stroke-linejoin="round" />
			<path
				d="M2 10.5L2 8.5C2 5.78 3.64 3.88 6.19 3.56C6.45 3.51 6.71 3.5 7 3.5L16 3.5C16.26 3.5 16.51 3.5 16.75 3.54C19.33 3.84 21 5.76 21 8.5L21 9.95L18.92 9.95C18.36 9.95 17.85 10.17 17.48 10.55C17.06 10.96 16.82 11.55 16.87 12.18C16.96 13.26 17.95 14.05 19.04 14.05L21 14.05L21 15.5C21 18.5 19 20.5 16 20.5L13.5 20.5"
				stroke-opacity="1.000000" stroke-width="1.500000" stroke-linejoin="round" stroke-linecap="round" />
		</g>
	</symbol>
	<symbol id="promote_icon">
		<g clip-path="url(#clip501_160)">
			<path
				d="M12 22.75C11.37 22.75 10.78 22.51 10.34 22.06L8.82 20.54C8.7 20.42 8.38 20.29 8.21 20.29L6.06 20.29C4.76 20.29 3.7 19.24 3.7 17.94L3.7 15.78C3.7 15.62 3.58 15.3 3.45 15.18L1.94 13.66C1.5 13.22 1.25 12.63 1.25 12C1.25 11.37 1.48 10.78 1.94 10.34L3.45 8.82C3.58 8.7 3.7 8.38 3.7 8.22L3.7 6.06C3.7 4.76 4.76 3.71 6.06 3.71L8.21 3.71C8.38 3.71 8.7 3.58 8.82 3.46L10.34 1.94C11.22 1.06 12.78 1.06 13.66 1.94L15.18 3.46C15.3 3.58 15.62 3.71 15.78 3.71L17.94 3.71C19.24 3.71 20.29 4.76 20.29 6.06L20.29 8.22C20.29 8.38 20.42 8.7 20.54 8.82L22.06 10.34C22.5 10.78 22.75 11.37 22.75 12C22.75 12.63 22.51 13.22 22.06 13.66L20.54 15.18C20.42 15.3 20.29 15.62 20.29 15.78L20.29 17.94C20.29 19.24 19.24 20.29 17.94 20.29L15.78 20.29C15.62 20.29 15.3 20.42 15.18 20.54L13.66 22.06C13.22 22.51 12.63 22.75 12 22.75ZM4.52 14.12C4.91 14.52 5.2 15.22 5.2 15.78L5.2 17.94C5.2 18.41 5.59 18.79 6.06 18.79L8.21 18.79C8.78 18.79 9.47 19.08 9.88 19.48L11.4 21C11.72 21.32 12.28 21.32 12.6 21L14.12 19.48C14.52 19.08 15.22 18.79 15.78 18.79L17.94 18.79C18.41 18.79 18.79 18.41 18.79 17.94L18.79 15.78C18.79 15.22 19.08 14.52 19.48 14.12L21 12.6C21.16 12.44 21.25 12.23 21.25 12C21.25 11.77 21.16 11.56 21 11.4L19.48 9.88C19.08 9.48 18.79 8.78 18.79 8.22L18.79 6.06C18.79 5.59 18.41 5.21 17.94 5.21L15.78 5.21C15.22 5.21 14.52 4.92 14.12 4.52L12.6 3C12.28 2.68 11.72 2.68 11.4 3L9.88 4.52C9.47 4.92 8.78 5.21 8.21 5.21L6.06 5.21C5.59 5.21 5.2 5.59 5.2 6.06L5.2 8.22C5.2 8.78 4.91 9.48 4.52 9.88L3 11.4C2.84 11.56 2.75 11.77 2.75 12C2.75 12.23 2.84 12.44 3 12.6L4.52 14.12Z"
				fill-opacity="1.000000" fill-rule="nonzero" />
			<path
				d="M15 16C14.44 16 13.99 15.55 13.99 15C13.99 14.45 14.44 14 14.99 14C15.54 14 15.99 14.45 15.99 15C15.99 15.55 15.55 16 15 16Z"
				fill-opacity="1.000000" fill-rule="nonzero" />
			<path d="M9.01 10C8.45 10 8 9.55 8 9C8 8.45 8.45 8 9 8C9.54 8 10 8.45 10 9C10 9.55 9.56 10 9.01 10Z"
				fill-opacity="1.000000" fill-rule="nonzero" />
			<path
				d="M8.99 15.74C8.8 15.74 8.61 15.67 8.46 15.52C8.17 15.23 8.17 14.75 8.46 14.46L14.46 8.46C14.75 8.17 15.23 8.17 15.52 8.46C15.81 8.75 15.81 9.23 15.52 9.52L9.52 15.52C9.37 15.67 9.18 15.74 8.99 15.74Z"
				fill-opacity="1.000000" fill-rule="nonzero" />
		</g>
	</symbol>
	<symbol id="help_icon">
		<g clip-path="url(#clip501_169)">
			<path
				d="M8 22.31C7.71 22.31 7.42 22.24 7.16 22.1C6.59 21.8 6.25 21.2 6.25 20.56L6.25 19.15C3.22 18.84 1.25 16.61 1.25 13.43L1.25 7.43C1.25 3.99 3.56 1.68 7 1.68L17 1.68C20.44 1.68 22.75 3.99 22.75 7.43L22.75 13.43C22.75 16.87 20.44 19.18 17 19.18L13.23 19.18L8.96 22.03C8.67 22.22 8.34 22.31 8 22.31ZM7 3.17C4.41 3.17 2.75 4.84 2.75 7.42L2.75 13.43C2.75 16.01 4.41 17.68 7 17.68C7.4 17.68 7.75 18.02 7.75 18.43L7.75 20.56C7.75 20.69 7.83 20.75 7.88 20.78C7.92 20.81 8.03 20.84 8.14 20.77L12.59 17.81C12.71 17.73 12.86 17.68 13.01 17.68L17.01 17.68C19.59 17.68 21.26 16.01 21.26 13.43L21.26 7.42C21.26 4.84 19.59 3.17 17.01 3.17L7 3.17Z"
				fill-opacity="1.000000" fill-rule="nonzero" />
			<path
				d="M11.99 12.1C11.58 12.1 11.24 11.76 11.24 11.35L11.24 11.14C11.24 9.98 12.09 9.41 12.41 9.19C12.78 8.94 12.9 8.77 12.9 8.51C12.9 8.01 12.49 7.6 11.99 7.6C11.49 7.6 11.08 8.01 11.08 8.51C11.08 8.92 10.74 9.26 10.33 9.26C9.92 9.26 9.58 8.92 9.58 8.51C9.58 7.18 10.66 6.1 11.99 6.1C13.32 6.1 14.4 7.18 14.4 8.51C14.4 9.65 13.56 10.22 13.25 10.43C12.86 10.69 12.74 10.86 12.74 11.14L12.74 11.35C12.74 11.77 12.4 12.1 11.99 12.1Z"
				fill-opacity="1.000000" fill-rule="nonzero" />
			<path
				d="M12 14.6C11.58 14.6 11.25 14.26 11.25 13.85C11.25 13.44 11.59 13.1 12 13.1C12.41 13.1 12.75 13.44 12.75 13.85C12.75 14.26 12.42 14.6 12 14.6Z"
				fill-opacity="1.000000" fill-rule="nonzero" />
		</g>
	</symbol>
	<symbol id="logo">
		<g clip-path="url(#clip501_190)">
			<path id="Vector"
				d="M18.5 34.88C17.46 34.88 16.41 34.65 15.6 34.17L7.12 29.29C3.66 26.96 3.45 26.6 3.45 22.95L3.45 14.04C3.45 10.39 3.65 10.03 7.04 7.73L15.58 2.8C17.2 1.86 19.74 1.86 21.36 2.8L29.87 7.7C33.33 10.03 33.54 10.39 33.54 14.04L33.54 22.93C33.54 26.59 33.34 26.94 29.95 29.24L21.41 34.17C20.58 34.65 19.53 34.88 18.5 34.88ZM18.5 4.42C17.85 4.42 17.22 4.54 16.77 4.8L8.29 9.71C5.78 11.4 5.78 11.4 5.78 14.04L5.78 22.93C5.78 25.57 5.78 25.57 8.35 27.31L16.77 32.17C17.68 32.69 19.33 32.69 20.24 32.17L28.72 27.27C31.21 25.57 31.21 25.57 31.21 22.93L31.21 14.04C31.21 11.4 31.21 11.4 28.64 9.66L20.22 4.8C19.77 4.54 19.14 4.42 18.5 4.42Z"
				fill="#000000" fill-opacity="1.000000" fill-rule="nonzero" />
			<path id="Vector"
				d="M18.5 24.28C15.3 24.28 12.71 21.69 12.71 18.5C12.71 15.3 15.3 12.71 18.5 12.71C21.69 12.71 24.28 15.3 24.28 18.5C24.28 21.69 21.69 24.28 18.5 24.28ZM18.5 15.03C16.58 15.03 15.03 16.58 15.03 18.5C15.03 20.41 16.58 21.96 18.5 21.96C20.41 21.96 21.96 20.41 21.96 18.5C21.96 16.58 20.41 15.03 18.5 15.03Z"
				fill="#000000" fill-opacity="1.000000" fill-rule="nonzero" />
		</g>
	</symbol>
	<symbol id="search_icon">
		<g clip-path="url(#clip501_92)">
			<path id="Vector" d="M11 19C6.58 19 3 15.41 3 11C3 6.58 6.58 3 11 3C15.41 3 19 6.58 19 11C19 15.41 15.41 19 11 19Z"
				stroke="#7E7E7E" stroke-opacity="1.000000" stroke-width="2.000000" stroke-linejoin="round" />
			<path id="Vector" d="M21 21L16.65 16.65" stroke="#7E7E7E" stroke-opacity="1.000000" stroke-width="2.000000"
				stroke-linejoin="round" stroke-linecap="round" />
		</g>
	</symbol>
</svg>